<svg xmlns="http://www.w3.org/2000/svg" viewBox="0 0 358 452"><defs><style>.cls-1{fill:#023509;}.cls-2{fill:#331d02;}.cls-3{fill:#edff00;}.cls-4{fill:#a28b00;}.cls-5{fill:#d3b20d;}</style></defs><g id="레이어_2" data-name="레이어 2"><g id="레이어_1-2" data-name="레이어 1"><polygon class="cls-1" points="358 285 340 285 340 259 322 259 322 221 309 221 309 182 301 182 301 181 290 181 290 144 269 144 269 104 248 104 248 84 229.54 84 229.03 64 211 64 211 43 194 43 194 23 173 23 173 40 152 40 152 60 130 60 130 83 110 83 110 102 90 102 90 124 69 124 69 163.85 49 163.5 49 201 32 201 32 240.85 12 240.5 12 265 0 265 0 291 13 291 13 321 33 321 33 341 53 341 53 359 93 359 93 381 162 381 193 381 262 381 262 360 301 360 301 340 322 340 322 320 340 320 340 312 358 312 358 285"/><rect class="cls-2" x="147" y="381" width="71" height="71"/><polygon class="cls-3" points="183.04 17.78 203.93 18.79 190.43 34.76 195.92 54.94 176.56 47.02 159.07 58.48 160.61 37.63 144.31 24.53 164.62 19.55 172.03 0 183.04 17.78"/><polygon class="cls-4" points="159.07 58.48 174.12 29.24 176.56 47.02 159.07 58.48"/><polygon class="cls-4" points="174.12 29.24 190.43 34.76 203.93 18.79 174.12 29.24"/><polygon class="cls-5" points="174.12 29.24 195.92 54.94 176.56 47.02 174.12 29.24"/><polygon class="cls-5" points="164.62 19.55 174.12 29.24 172.03 0 164.62 19.55"/><polygon class="cls-5" points="174.12 29.24 144.31 24.53 160.61 37.63 174.12 29.24"/></g></g></svg>