<svg xmlns="http://www.w3.org/2000/svg" viewBox="0 0 317 479"><defs><style>.cls-1{fill:#023509;}.cls-2{fill:#ececc8;}.cls-3{fill:#fff;}.cls-4{fill:#f8244f;}.cls-5{fill:#441e22;}.cls-6{fill:#494042;}.cls-7{fill:#2b1216;}.cls-8{fill:#c3c2bf;}.cls-9{fill:#ee0006;}.cls-10{fill:#264f0e;}</style></defs><g id="레이어_2" data-name="레이어 2"><g id="레이어_1-2" data-name="레이어 1"><polygon class="cls-1" points="59.5 375 59.5 417.13 40.5 417.13 40.5 458.08 19.08 458.08 19.08 478.55 300.5 478.55 300.5 458.08 279.98 458.08 279.98 416.5 259.65 416.5 259.65 375 59.5 375"/><polygon class="cls-1" points="138 80.5 138 179.38 119.09 179.38 119.09 198.02 98.77 198.02 98.77 220 77.59 220 77.59 259.85 58 259.5 58 340.32 78.44 340.32 78.44 360.5 98 360.5 98 378.44 138 378.44 138 399.62 238 399.62 238 379.29 277 379.29 277 358.96 298 358.96 298 338.63 317 338.63 317 278.49 298 278.49 298 240.06 277.5 240.06 277.5 200.5 256 200.5 256 179.5 238 179.5 238 80.5 197.87 80.5 197.87 159.5 177.5 159.5 177.5 80.5 138 80.5"/><polygon class="cls-1" points="80 80.5 80 179.38 61.09 179.38 61.09 198.02 40.77 198.02 40.77 220 19.59 220 19.59 259.85 0 259.5 0 340.32 20.44 340.32 20.44 360.5 40 360.5 40 378.44 80 378.44 80 399.62 180 399.62 180 379.29 219 379.29 219 358.96 240 358.96 240 338.63 259 338.63 259 278.49 240 278.49 240 240.06 219.5 240.06 219.5 200.5 198 200.5 198 179.5 180 179.5 180 80.5 139.87 80.5 139.87 159.5 119.5 159.5 119.5 80.5 80 80.5"/><polygon class="cls-2" points="100 80.5 100 179.38 81.09 179.38 81.09 198.02 60.77 198.02 60.77 220 39.59 220 39.59 259.85 20 259.5 20 340.32 40.44 340.32 40.44 360.5 60 360.5 60 378.44 100 378.44 100 399.62 200 399.62 200 379.29 239 379.29 239 358.96 260 358.96 260 338.63 279 338.63 279 278.49 260 278.49 260 240.06 239.5 240.06 239.5 200.5 218 200.5 218 179.5 200 179.5 200 80.5 159.87 80.5 159.87 159.5 139.5 159.5 139.5 80.5 100 80.5"/><polygon class="cls-3" points="119 80.5 119 179.38 100.09 179.38 100.09 198.02 79.77 198.02 79.77 220 58.59 220 58.59 259.85 39 259.5 39 340.32 59.44 340.32 59.44 360.5 79 360.5 79 378.44 119 378.44 119 399.62 219 399.62 219 379.29 258 379.29 258 358.96 279 358.96 279 338.63 298 338.63 298 278.49 279 278.49 279 240.06 258.5 240.06 258.5 200.5 237 200.5 237 179.5 219 179.5 219 80.5 178.87 80.5 178.87 159.5 158.5 159.5 158.5 80.5 119 80.5"/><rect class="cls-1" x="122" y="258.5" width="21" height="42"/><rect class="cls-1" x="202" y="258.5" width="21" height="42"/><rect class="cls-4" x="162.5" y="299" width="21" height="21"/><rect class="cls-5" x="141.5" y="320" width="21" height="21"/><rect class="cls-5" x="162.5" y="320" width="21" height="21"/><rect class="cls-6" x="183.5" y="320" width="21" height="21"/><rect class="cls-7" x="204.5" y="320" width="21" height="21"/><rect class="cls-5" x="225.5" y="320" width="21" height="21"/><rect class="cls-5" x="246.5" y="301" width="21" height="21"/><rect class="cls-5" x="267.5" y="320" width="21" height="21"/><rect class="cls-5" x="246.5" y="341" width="21" height="21"/><rect class="cls-8" x="119.5" y="100" width="20" height="60"/><rect class="cls-8" x="199.5" y="100" width="20" height="60"/><rect class="cls-1" x="99.5" y="59" width="60" height="21"/><rect class="cls-1" x="179.5" y="59" width="41" height="21"/><rect class="cls-9" x="159.5" y="159" width="20" height="20"/><rect class="cls-9" x="159.5" y="140" width="20" height="20"/><rect class="cls-9" x="179.5" y="159" width="20" height="20"/><rect class="cls-9" x="179.5" y="140" width="20" height="20"/><rect class="cls-9" x="179.5" y="120" width="20" height="20"/><rect class="cls-9" x="159.5" y="120" width="20" height="20"/><rect class="cls-9" x="139.5" y="159" width="20" height="20"/><rect class="cls-8" x="119.5" y="81" width="20" height="20"/><rect class="cls-5" x="179.5" y="81" width="20" height="20"/><rect class="cls-9" x="119.5" y="159" width="20" height="20"/><rect class="cls-5" x="99.5" y="139" width="20" height="20"/><rect class="cls-5" x="199.5" y="139" width="20" height="20"/><rect class="cls-5" x="199.5" y="120" width="20" height="20"/><rect class="cls-5" x="199.5" y="100" width="20" height="20"/><rect class="cls-5" x="199.5" y="81" width="20" height="20"/><rect class="cls-5" x="219.5" y="60" width="20" height="20"/><rect class="cls-5" x="199.5" y="39" width="20" height="20"/><rect class="cls-5" x="219.5" y="20" width="20" height="20"/><rect class="cls-5" x="239.5" width="20" height="20"/><rect class="cls-5" x="200.5" width="20" height="20"/><rect class="cls-5" x="99.5" y="119" width="20" height="20"/><rect class="cls-5" x="99.5" y="99" width="20" height="20"/><rect class="cls-5" x="119.5" y="100" width="20" height="20"/><rect class="cls-5" x="99.5" y="79" width="20" height="20"/><rect class="cls-5" x="79.5" y="60" width="20" height="20"/><rect class="cls-5" x="79.5" y="20" width="20" height="20"/><rect class="cls-5" x="59.5" width="20" height="20"/><rect class="cls-5" x="99.5" width="20" height="20"/><rect class="cls-5" x="99.5" y="39" width="20" height="20"/><rect class="cls-9" x="199.5" y="159" width="20" height="20"/><rect class="cls-9" x="139.5" y="400" width="20" height="20"/><rect class="cls-9" x="159.5" y="400" width="20" height="20"/><rect class="cls-9" x="119.5" y="400" width="20" height="20"/><rect class="cls-9" x="179.5" y="400" width="20" height="20"/><rect class="cls-9" x="139.5" y="439" width="20" height="20"/><rect class="cls-9" x="159.5" y="439" width="20" height="20"/><rect class="cls-9" x="119.5" y="439" width="20" height="20"/><rect class="cls-9" x="139.5" y="458" width="20" height="20"/><rect class="cls-9" x="159.5" y="458" width="20" height="20"/><rect class="cls-9" x="179.5" y="458" width="20" height="20"/><rect class="cls-9" x="179.5" y="439" width="20" height="20"/><rect class="cls-9" x="199.5" y="439" width="20" height="20"/><rect class="cls-9" x="199.5" y="400" width="20" height="20"/><rect class="cls-10" x="139.5" y="419" width="20" height="20"/><rect class="cls-10" x="119.5" y="459" width="20" height="20"/><rect class="cls-10" x="99.5" y="419" width="20" height="20"/><rect class="cls-3" x="159.5" y="419" width="20" height="20"/><rect class="cls-3" x="119.5" y="419" width="20" height="20"/><rect class="cls-10" x="179.5" y="419" width="20" height="20"/><rect class="cls-10" x="199.5" y="458" width="20" height="20"/><rect class="cls-10" x="219.5" y="419" width="20" height="20"/><rect class="cls-3" x="199.5" y="419" width="20" height="20"/><rect class="cls-9" x="219.5" y="159" width="20" height="20"/><polygon class="cls-2" points="98.5 400 79.07 400 79.07 440.91 59.5 440.91 59.5 459.55 98.5 459.55 98.5 400"/><polygon class="cls-3" points="98.5 419 79.07 419 79.07 459.91 59.5 459.91 59.5 478.55 98.5 478.55 98.5 419"/><polygon class="cls-3" points="240.5 419 259.93 419 259.93 459.91 279.5 459.91 279.5 478.55 240.5 478.55 240.5 419"/></g></g></svg>