<svg xmlns="http://www.w3.org/2000/svg" viewBox="0 0 63 77.8"><defs><style>.cls-1{fill:#fff;stroke:#000;}.cls-1,.cls-3{stroke-miterlimit:10;}.cls-2{fill:#197c33;}.cls-3{fill:none;stroke:#197c33;stroke-width:5px;}</style></defs><g id="레이어_2" data-name="레이어 2"><g id="레이어_1-2" data-name="레이어 1"><polygon class="cls-1" points="62.5 60.72 43.5 76.72 43.5 33.72 62.5 17.72 62.5 60.72"/><rect class="cls-1" x="0.5" y="33.72" width="43" height="43"/><polyline class="cls-1" points="0.5 33.72 22 17.72 62.5 17.72"/><rect class="cls-2" x="17.5" y="33.72" width="9" height="43"/><polygon class="cls-2" points="58 64.22 51 71.22 51 28.22 58 21.22 58 64.22"/><polygon class="cls-2" points="31.5 23.69 17.5 33.72 26.5 33.72 39.65 23.69 31.5 23.69"/><polyline class="cls-2" points="51 28.22 25.17 28.22 35.42 21.22 58 21.22"/><polyline class="cls-2" points="33 28.22 7.17 28.22 17.42 21.22 40 21.22"/><path class="cls-3" d="M31.5,23.72c-4.37,3.35-17.33-1.08-18-9-.56-6.63,7.68-13.28,13-12C33.49,4.4,36.36,20,31.5,23.72Z"/><path class="cls-3" d="M28,20.9c-3.52-4.23.39-17.36,8.28-18.34,6.6-.82,13.57,7.15,12.5,12.51C47.39,22.12,31.92,25.61,28,20.9Z"/></g></g></svg>