<svg xmlns="http://www.w3.org/2000/svg" viewBox="0 0 49.84 86.42"><defs><style>.cls-1{fill:none;stroke:#ff0019;stroke-miterlimit:10;stroke-width:11px;}.cls-2{fill:#fff;}</style></defs><g id="레이어_2" data-name="레이어 2"><g id="레이어_1-2" data-name="레이어 1"><path class="cls-1" d="M5.24,23.9l8.51-11.83a15.78,15.78,0,0,1,22-3.59l2,1.41a15.8,15.8,0,0,1,3.59,22.05L4.46,83.21"/><rect class="cls-2" x="5.35" y="71.02" width="10.53" height="7.29" transform="translate(45.61 7.86) rotate(35.74)"/><rect class="cls-2" x="11.97" y="61.82" width="10.53" height="7.29" transform="translate(41.48 2.26) rotate(35.74)"/><rect class="cls-2" x="18.59" y="52.61" width="10.53" height="7.29" transform="translate(37.35 -3.34) rotate(35.74)"/><rect class="cls-2" x="25.22" y="43.41" width="10.53" height="7.29" transform="translate(33.22 -8.94) rotate(35.74)"/><rect class="cls-2" x="31.84" y="34.21" width="10.53" height="7.29" transform="translate(29.1 -14.54) rotate(35.74)"/><rect class="cls-2" x="4.23" y="14.34" width="10.53" height="7.29" transform="translate(12.29 -2.16) rotate(35.74)"/></g></g></svg>