<svg xmlns="http://www.w3.org/2000/svg" viewBox="0 0 59.63 58.48"><defs><style>.cls-1{fill:#edff00;}.cls-2{fill:#a28b00;}.cls-3{fill:#d3b20d;}</style></defs><g id="레이어_2" data-name="레이어 2"><g id="레이어_1-2" data-name="레이어 1"><polygon class="cls-1" points="38.74 17.78 59.63 18.79 46.12 34.76 51.61 54.94 32.26 47.02 14.76 58.48 16.31 37.63 0 24.53 20.31 19.55 27.73 0 38.74 17.78"/><polygon class="cls-2" points="14.76 58.48 29.81 29.24 32.26 47.02 14.76 58.48"/><polygon class="cls-2" points="29.81 29.24 46.12 34.76 59.63 18.79 29.81 29.24"/><polygon class="cls-3" points="29.81 29.24 51.61 54.94 32.26 47.02 29.81 29.24"/><polygon class="cls-3" points="20.31 19.55 29.81 29.24 27.73 0 20.31 19.55"/><polygon class="cls-3" points="29.81 29.24 0 24.53 16.31 37.63 29.81 29.24"/></g></g></svg>