<svg xmlns="http://www.w3.org/2000/svg" viewBox="0 0 358 429"><defs><style>.cls-1{fill:#023509;}.cls-2{fill:#331d02;}</style></defs><g id="레이어_2" data-name="레이어 2"><g id="레이어_1-2" data-name="레이어 1"><polygon class="cls-1" points="358 262 340 262 340 236 322 236 322 198 309 198 309 159 301 159 301 158 290 158 290 121 269 121 269 81 248 81 248 61 229.54 61 229.03 41 211 41 211 20 194 20 194 0 173 0 173 17 152 17 152 37 130 37 130 60 110 60 110 79 90 79 90 101 69 101 69 140.85 49 140.5 49 178 32 178 32 217.85 12 217.5 12 242 0 242 0 268 13 268 13 298 33 298 33 318 53 318 53 336 93 336 93 358 162 358 193 358 262 358 262 337 301 337 301 317 322 317 322 297 340 297 340 289 358 289 358 262"/><rect class="cls-2" x="147" y="358" width="71" height="71"/></g></g></svg>